<svg xmlns="http://www.w3.org/2000/svg" xmlns:xlink="http://www.w3.org/1999/xlink" width="1800" zoomAndPan="magnify" viewBox="0 0 1350 1349.999938" height="1800" preserveAspectRatio="xMidYMid meet" version="1.0"><defs><g/><clipPath id="1e83292e48"><path d="M 8.4375 8.4375 L 1341.9375 8.4375 L 1341.9375 1341.9375 L 8.4375 1341.9375 Z M 8.4375 8.4375 " clip-rule="nonzero"/></clipPath><clipPath id="e454e0372d"><path d="M 659 1303 L 691 1303 L 691 1341.9375 L 659 1341.9375 Z M 659 1303 " clip-rule="nonzero"/></clipPath></defs><g clip-path="url(#1e83292e48)"><path fill="#ff9700" d="M 872.582031 499.285156 L 850.710938 499.285156 L 850.710938 115.40625 C 850.710938 102.003906 841.453125 91.066406 830.074219 91.066406 L 520.011719 91.066406 C 508.632812 91.066406 499.375 102 499.375 115.40625 L 499.375 123.871094 C 470.710938 133.660156 443.90625 143.980469 416.652344 157.648438 L 416.652344 115.40625 C 416.65625 58.175781 461.628906 8.4375 520.011719 8.4375 L 830.078125 8.4375 C 888.457031 8.4375 933.429688 58.175781 933.429688 115.40625 L 933.429688 416.652344 L 1009.097656 416.652344 L 1014.300781 424.328125 C 965.886719 447.078125 918.703125 472.300781 872.582031 499.375 Z M 157.648438 933.34375 L 115.40625 933.34375 C 58.265625 933.34375 8.4375 888.371094 8.4375 829.988281 L 8.4375 519.921875 C 8.4375 461.542969 58.265625 416.566406 115.40625 416.566406 L 416.652344 416.566406 L 416.652344 340.902344 C 443.992188 322.207031 468.773438 305.714844 499.375 291.695312 L 499.375 499.285156 L 115.5 499.285156 C 102.09375 499.285156 91.15625 508.546875 91.15625 519.921875 L 91.15625 829.988281 C 91.15625 841.367188 102.09375 850.625 115.5 850.625 L 123.964844 850.625 C 133.664062 878.933594 144.332031 906.535156 157.738281 933.347656 Z M 933.34375 1192.351562 L 933.34375 1234.59375 C 933.34375 1291.824219 888.367188 1341.5625 829.988281 1341.5625 L 519.921875 1341.5625 C 488.882812 1341.5625 461.542969 1327.539062 442.40625 1305.054688 C 426.53125 1286.359375 416.65625 1261.402344 416.65625 1234.59375 L 416.65625 933.429688 L 340.992188 933.429688 C 322.296875 906.09375 305.804688 881.3125 291.78125 850.710938 L 499.375 850.710938 L 499.375 1234.589844 C 499.375 1247.992188 508.722656 1258.929688 520.011719 1258.929688 L 830.078125 1258.929688 C 841.453125 1258.929688 850.714844 1247.996094 850.714844 1234.589844 L 850.714844 1226.125 C 879.019531 1216.425781 906.625 1205.753906 933.433594 1192.347656 Z M 1174.09375 399.898438 C 999.308594 490.46875 762.085938 703.527344 647.089844 849.832031 C 580.242188 760.851562 500.789062 652.554688 417.625 595.941406 C 501.847656 618.691406 570.632812 664.109375 647.089844 698.148438 C 804.152344 576.628906 984.933594 462.953125 1174.09375 399.898438 Z M 640.914062 500.257812 C 674.25 500.257812 701.324219 527.242188 701.324219 560.664062 C 701.324219 594 674.25 621.074219 640.914062 621.074219 C 607.582031 621.074219 580.503906 594 580.503906 560.664062 C 580.507812 527.328125 607.492188 500.257812 640.914062 500.257812 Z M 1341.5625 520.011719 L 1341.5625 830.078125 C 1341.5625 888.457031 1291.734375 933.429688 1234.59375 933.429688 L 933.34375 933.429688 L 933.34375 1009.097656 C 906.007812 1027.792969 881.222656 1044.285156 850.625 1058.304688 L 850.625 850.714844 L 1234.5 850.714844 C 1247.90625 850.714844 1258.84375 841.453125 1258.84375 830.078125 L 1258.84375 520.011719 C 1258.84375 508.632812 1247.90625 499.375 1234.5 499.375 L 1226.035156 499.375 C 1217.746094 475.296875 1209.195312 452.371094 1198.34375 429.175781 L 1221.449219 416.652344 L 1234.5 416.652344 C 1291.734375 416.652344 1341.472656 461.628906 1341.472656 520.007812 Z M 1341.5625 520.011719 " fill-opacity="1" fill-rule="nonzero"/></g><path fill="#ff9700" d="M 1048.339844 408.71875 C 1025.941406 377.410156 999.664062 348.929688 970.296875 324.148438 L 970.296875 221.320312 C 1032.464844 261.886719 1085.996094 315.0625 1126.828125 376.972656 C 1100.28125 386.671875 1074.179688 397.34375 1048.339844 408.71875 Z M 1112.097656 813.675781 C 1125.945312 769.933594 1133.441406 723.28125 1133.441406 674.953125 C 1133.441406 609.253906 1119.59375 546.90625 1094.8125 490.378906 C 1118.183594 474.683594 1141.90625 459.953125 1165.71875 446.550781 C 1198.082031 515.953125 1216.160156 593.292969 1216.160156 674.867188 C 1216.160156 722.839844 1209.898438 769.316406 1198.257812 813.585938 L 1112.1875 813.585938 Z M 536.238281 1112.097656 C 579.976562 1125.945312 626.628906 1133.441406 674.957031 1133.441406 C 815.703125 1133.441406 941.546875 1070.035156 1025.679688 970.207031 L 1128.503906 970.207031 C 1028.503906 1123.476562 858.742188 1216.074219 674.960938 1216.074219 C 626.984375 1216.074219 580.511719 1209.8125 536.242188 1198.082031 L 536.242188 1112.011719 L 536.242188 1112.097656 Z M 237.8125 536.238281 C 223.964844 579.976562 216.472656 626.628906 216.472656 674.957031 C 216.472656 815.703125 279.878906 941.546875 379.703125 1025.679688 L 379.703125 1128.503906 C 226.433594 1028.503906 133.839844 858.742188 133.839844 674.871094 C 133.839844 626.894531 140.101562 580.421875 151.742188 536.152344 L 237.8125 536.152344 Z M 674.957031 133.75 C 722.929688 133.75 769.40625 140.011719 813.675781 151.652344 L 813.675781 237.722656 C 769.9375 223.878906 723.285156 216.382812 674.957031 216.382812 C 534.210938 216.382812 408.367188 279.789062 324.234375 379.617188 L 221.410156 379.617188 C 321.589844 226.082031 491.617188 133.75 675.046875 133.75 Z M 674.957031 133.75 " fill-opacity="1" fill-rule="nonzero"/><g clip-path="url(#e454e0372d)"><path fill="#333333" d="M 659.769531 1341.320312 L 659.792969 1341.320312 L 660.105469 1341.5625 C 669.867188 1328.890625 680.035156 1316.253906 690.230469 1303.605469 C 680.089844 1316.183594 669.496094 1328.71875 659.769531 1341.320312 Z M 659.769531 1341.320312 " fill-opacity="1" fill-rule="nonzero"/></g><g fill="#ffffff" fill-opacity="1"><g transform="translate(1101.87135, 1227.242719)"><g><path d="M 17.765625 -13.390625 L 17.765625 -22.53125 L 20.40625 -22.53125 L 20.40625 0 L 17.765625 0 L 17.765625 -11.140625 L 6.0625 -11.140625 L 6.0625 0 L 3.40625 0 L 3.40625 -22.53125 L 6.0625 -22.53125 L 6.0625 -13.390625 Z M 17.765625 -13.390625 "/></g></g></g><g fill="#ffffff" fill-opacity="1"><g transform="translate(1125.693254, 1227.242719)"><g><path d="M 16.203125 -7.921875 L 4.515625 -7.921875 C 4.585938 -5.859375 5.082031 -4.34375 6 -3.375 C 6.914062 -2.40625 8.175781 -1.921875 9.78125 -1.921875 C 11 -1.921875 11.976562 -2.132812 12.71875 -2.5625 C 13.457031 -3 14.035156 -3.679688 14.453125 -4.609375 L 14.78125 -4.609375 L 16.40625 -3.640625 C 15.914062 -2.398438 15.128906 -1.425781 14.046875 -0.71875 C 12.960938 -0.0195312 11.539062 0.328125 9.78125 0.328125 C 8.144531 0.328125 6.734375 0.00390625 5.546875 -0.640625 C 4.367188 -1.296875 3.457031 -2.28125 2.8125 -3.59375 C 2.175781 -4.90625 1.859375 -6.535156 1.859375 -8.484375 C 1.859375 -10.421875 2.195312 -12.050781 2.875 -13.375 C 3.550781 -14.695312 4.46875 -15.6875 5.625 -16.34375 C 6.789062 -17 8.125 -17.328125 9.625 -17.328125 C 11.8125 -17.328125 13.515625 -16.710938 14.734375 -15.484375 C 15.953125 -14.253906 16.566406 -12.429688 16.578125 -10.015625 C 16.578125 -9.066406 16.554688 -8.429688 16.515625 -8.109375 Z M 14.09375 -10.015625 C 14.0625 -11.828125 13.664062 -13.144531 12.90625 -13.96875 C 12.144531 -14.789062 11.050781 -15.203125 9.625 -15.203125 C 8.132812 -15.203125 6.96875 -14.785156 6.125 -13.953125 C 5.28125 -13.128906 4.765625 -11.816406 4.578125 -10.015625 Z M 14.09375 -10.015625 "/></g></g></g><g fill="#ffffff" fill-opacity="1"><g transform="translate(1143.813925, 1227.242719)"><g><path d="M 7.015625 0.328125 C 5.335938 0.328125 4.03125 -0.109375 3.09375 -0.984375 C 2.15625 -1.859375 1.6875 -3.109375 1.6875 -4.734375 C 1.6875 -5.734375 1.890625 -6.582031 2.296875 -7.28125 C 2.710938 -7.976562 3.359375 -8.539062 4.234375 -8.96875 C 5.109375 -9.40625 6.25 -9.742188 7.65625 -9.984375 C 8.894531 -10.191406 9.832031 -10.421875 10.46875 -10.671875 C 11.113281 -10.929688 11.546875 -11.21875 11.765625 -11.53125 C 11.984375 -11.851562 12.09375 -12.257812 12.09375 -12.75 C 12.09375 -13.519531 11.828125 -14.109375 11.296875 -14.515625 C 10.773438 -14.929688 9.925781 -15.140625 8.75 -15.140625 C 7.65625 -15.140625 6.710938 -14.925781 5.921875 -14.5 C 5.140625 -14.070312 4.421875 -13.4375 3.765625 -12.59375 L 3.453125 -12.59375 L 2.21875 -14.328125 C 2.9375 -15.242188 3.847656 -15.972656 4.953125 -16.515625 C 6.066406 -17.054688 7.332031 -17.328125 8.75 -17.328125 C 10.757812 -17.328125 12.238281 -16.882812 13.1875 -16 C 14.132812 -15.125 14.609375 -13.910156 14.609375 -12.359375 L 14.609375 -3.34375 C 14.609375 -2.394531 15.007812 -1.921875 15.8125 -1.921875 C 16.082031 -1.921875 16.335938 -1.96875 16.578125 -2.0625 L 16.796875 -2 L 17.09375 -0.265625 C 16.90625 -0.140625 16.660156 -0.046875 16.359375 0.015625 C 16.054688 0.0859375 15.742188 0.125 15.421875 0.125 C 14.492188 0.125 13.789062 -0.078125 13.3125 -0.484375 C 12.832031 -0.898438 12.523438 -1.507812 12.390625 -2.3125 L 12.0625 -2.34375 C 11.582031 -1.445312 10.929688 -0.773438 10.109375 -0.328125 C 9.285156 0.109375 8.253906 0.328125 7.015625 0.328125 Z M 7.5625 -1.6875 C 8.507812 -1.6875 9.328125 -1.898438 10.015625 -2.328125 C 10.710938 -2.765625 11.242188 -3.378906 11.609375 -4.171875 C 11.984375 -4.960938 12.171875 -5.878906 12.171875 -6.921875 L 12.171875 -9.078125 L 11.875 -9.140625 C 11.5 -8.867188 11.035156 -8.644531 10.484375 -8.46875 C 9.941406 -8.289062 9.1875 -8.128906 8.21875 -7.984375 C 7.226562 -7.847656 6.441406 -7.640625 5.859375 -7.359375 C 5.285156 -7.085938 4.875 -6.738281 4.625 -6.3125 C 4.375 -5.882812 4.25 -5.359375 4.25 -4.734375 C 4.25 -3.734375 4.539062 -2.972656 5.125 -2.453125 C 5.71875 -1.941406 6.53125 -1.6875 7.5625 -1.6875 Z M 7.5625 -1.6875 "/></g></g></g><g fill="#ffffff" fill-opacity="1"><g transform="translate(1161.395294, 1227.242719)"><g><path d="M 6.765625 0.328125 C 5.566406 0.328125 4.617188 -0.0078125 3.921875 -0.6875 C 3.234375 -1.375 2.890625 -2.398438 2.890625 -3.765625 L 2.890625 -23.828125 L 5.40625 -23.828125 L 5.40625 -3.9375 C 5.40625 -3.21875 5.539062 -2.703125 5.8125 -2.390625 C 6.082031 -2.078125 6.507812 -1.921875 7.09375 -1.921875 C 7.4375 -1.921875 7.789062 -1.976562 8.15625 -2.09375 L 8.375 -2.03125 L 8.65625 -0.0625 C 8.476562 0.0625 8.210938 0.15625 7.859375 0.21875 C 7.515625 0.289062 7.148438 0.328125 6.765625 0.328125 Z M 6.765625 0.328125 "/></g></g></g><g fill="#ffffff" fill-opacity="1"><g transform="translate(1170.640534, 1227.242719)"><g><path d="M 11.5 -2.703125 L 12.296875 -0.890625 C 11.898438 -0.492188 11.375 -0.191406 10.71875 0.015625 C 10.0625 0.222656 9.351562 0.328125 8.59375 0.328125 C 5.351562 0.328125 3.734375 -1.316406 3.734375 -4.609375 L 3.734375 -14.953125 L 0.765625 -14.953125 L 0.765625 -17.015625 L 3.734375 -17.015625 L 3.734375 -20.609375 L 6.234375 -21.015625 L 6.234375 -17.015625 L 11.71875 -17.015625 L 11.71875 -14.953125 L 6.234375 -14.953125 L 6.234375 -4.859375 C 6.234375 -2.898438 7.082031 -1.921875 8.78125 -1.921875 C 9.707031 -1.921875 10.503906 -2.179688 11.171875 -2.703125 Z M 11.5 -2.703125 "/></g></g></g><g fill="#ffffff" fill-opacity="1"><g transform="translate(1183.583871, 1227.242719)"><g><path d="M 2.953125 0 L 2.953125 -23.828125 L 5.46875 -23.828125 L 5.46875 -14.578125 L 5.796875 -14.515625 C 7.003906 -16.390625 8.753906 -17.328125 11.046875 -17.328125 C 13.085938 -17.328125 14.566406 -16.800781 15.484375 -15.75 C 16.410156 -14.707031 16.875 -13.101562 16.875 -10.9375 L 16.875 0 L 14.359375 0 L 14.359375 -10.875 C 14.359375 -11.90625 14.226562 -12.726562 13.96875 -13.34375 C 13.707031 -13.96875 13.300781 -14.421875 12.75 -14.703125 C 12.195312 -14.992188 11.476562 -15.140625 10.59375 -15.140625 C 9.050781 -15.140625 7.8125 -14.640625 6.875 -13.640625 C 5.9375 -12.640625 5.46875 -11 5.46875 -8.71875 L 5.46875 0 Z M 2.953125 0 "/></g></g></g><g fill="#ffffff" fill-opacity="1"><g transform="translate(1203.152964, 1227.242719)"><g/></g></g><g fill="#ffffff" fill-opacity="1"><g transform="translate(1210.888149, 1227.242719)"><g><path d="M 12.453125 0.328125 C 10.484375 0.328125 8.726562 -0.125 7.1875 -1.03125 C 5.644531 -1.9375 4.4375 -3.257812 3.5625 -5 C 2.6875 -6.738281 2.25 -8.828125 2.25 -11.265625 C 2.25 -13.703125 2.6875 -15.789062 3.5625 -17.53125 C 4.4375 -19.269531 5.644531 -20.59375 7.1875 -21.5 C 8.726562 -22.40625 10.484375 -22.859375 12.453125 -22.859375 C 14.554688 -22.859375 16.304688 -22.457031 17.703125 -21.65625 C 19.097656 -20.863281 20.109375 -19.664062 20.734375 -18.0625 L 19.03125 -16.9375 L 18.640625 -16.9375 C 18.023438 -18.21875 17.222656 -19.128906 16.234375 -19.671875 C 15.253906 -20.210938 13.992188 -20.484375 12.453125 -20.484375 C 11.035156 -20.484375 9.773438 -20.164062 8.671875 -19.53125 C 7.578125 -18.90625 6.703125 -17.90625 6.046875 -16.53125 C 5.398438 -15.15625 5.078125 -13.398438 5.078125 -11.265625 C 5.078125 -9.128906 5.398438 -7.375 6.046875 -6 C 6.703125 -4.632812 7.578125 -3.632812 8.671875 -3 C 9.773438 -2.375 11.035156 -2.0625 12.453125 -2.0625 C 14.085938 -2.0625 15.421875 -2.425781 16.453125 -3.15625 C 17.492188 -3.894531 18.265625 -5.085938 18.765625 -6.734375 L 19.15625 -6.734375 L 20.921875 -5.859375 C 20.390625 -3.859375 19.398438 -2.328125 17.953125 -1.265625 C 16.515625 -0.203125 14.679688 0.328125 12.453125 0.328125 Z M 12.453125 0.328125 "/></g></g></g><g fill="#ffffff" fill-opacity="1"><g transform="translate(1232.984267, 1227.242719)"><g><path d="M 7.015625 0.328125 C 5.335938 0.328125 4.03125 -0.109375 3.09375 -0.984375 C 2.15625 -1.859375 1.6875 -3.109375 1.6875 -4.734375 C 1.6875 -5.734375 1.890625 -6.582031 2.296875 -7.28125 C 2.710938 -7.976562 3.359375 -8.539062 4.234375 -8.96875 C 5.109375 -9.40625 6.25 -9.742188 7.65625 -9.984375 C 8.894531 -10.191406 9.832031 -10.421875 10.46875 -10.671875 C 11.113281 -10.929688 11.546875 -11.21875 11.765625 -11.53125 C 11.984375 -11.851562 12.09375 -12.257812 12.09375 -12.75 C 12.09375 -13.519531 11.828125 -14.109375 11.296875 -14.515625 C 10.773438 -14.929688 9.925781 -15.140625 8.75 -15.140625 C 7.65625 -15.140625 6.710938 -14.925781 5.921875 -14.5 C 5.140625 -14.070312 4.421875 -13.4375 3.765625 -12.59375 L 3.453125 -12.59375 L 2.21875 -14.328125 C 2.9375 -15.242188 3.847656 -15.972656 4.953125 -16.515625 C 6.066406 -17.054688 7.332031 -17.328125 8.75 -17.328125 C 10.757812 -17.328125 12.238281 -16.882812 13.1875 -16 C 14.132812 -15.125 14.609375 -13.910156 14.609375 -12.359375 L 14.609375 -3.34375 C 14.609375 -2.394531 15.007812 -1.921875 15.8125 -1.921875 C 16.082031 -1.921875 16.335938 -1.96875 16.578125 -2.0625 L 16.796875 -2 L 17.09375 -0.265625 C 16.90625 -0.140625 16.660156 -0.046875 16.359375 0.015625 C 16.054688 0.0859375 15.742188 0.125 15.421875 0.125 C 14.492188 0.125 13.789062 -0.078125 13.3125 -0.484375 C 12.832031 -0.898438 12.523438 -1.507812 12.390625 -2.3125 L 12.0625 -2.34375 C 11.582031 -1.445312 10.929688 -0.773438 10.109375 -0.328125 C 9.285156 0.109375 8.253906 0.328125 7.015625 0.328125 Z M 7.5625 -1.6875 C 8.507812 -1.6875 9.328125 -1.898438 10.015625 -2.328125 C 10.710938 -2.765625 11.242188 -3.378906 11.609375 -4.171875 C 11.984375 -4.960938 12.171875 -5.878906 12.171875 -6.921875 L 12.171875 -9.078125 L 11.875 -9.140625 C 11.5 -8.867188 11.035156 -8.644531 10.484375 -8.46875 C 9.941406 -8.289062 9.1875 -8.128906 8.21875 -7.984375 C 7.226562 -7.847656 6.441406 -7.640625 5.859375 -7.359375 C 5.285156 -7.085938 4.875 -6.738281 4.625 -6.3125 C 4.375 -5.882812 4.25 -5.359375 4.25 -4.734375 C 4.25 -3.734375 4.539062 -2.972656 5.125 -2.453125 C 5.71875 -1.941406 6.53125 -1.6875 7.5625 -1.6875 Z M 7.5625 -1.6875 "/></g></g></g><g fill="#ffffff" fill-opacity="1"><g transform="translate(1250.56563, 1227.242719)"><g><path d="M 2.953125 0 L 2.953125 -17 L 5.34375 -17 L 5.34375 -14.328125 L 5.671875 -14.25 C 6.460938 -16.1875 7.953125 -17.15625 10.140625 -17.15625 C 11.296875 -17.15625 12.164062 -16.941406 12.75 -16.515625 L 12.09375 -14.390625 L 11.796875 -14.328125 C 11.148438 -14.648438 10.445312 -14.8125 9.6875 -14.8125 C 8.332031 -14.8125 7.289062 -14.300781 6.5625 -13.28125 C 5.832031 -12.269531 5.46875 -10.625 5.46875 -8.34375 L 5.46875 0 Z M 2.953125 0 "/></g></g></g><g fill="#ffffff" fill-opacity="1"><g transform="translate(1263.247009, 1227.242719)"><g><path d="M 16.203125 -7.921875 L 4.515625 -7.921875 C 4.585938 -5.859375 5.082031 -4.34375 6 -3.375 C 6.914062 -2.40625 8.175781 -1.921875 9.78125 -1.921875 C 11 -1.921875 11.976562 -2.132812 12.71875 -2.5625 C 13.457031 -3 14.035156 -3.679688 14.453125 -4.609375 L 14.78125 -4.609375 L 16.40625 -3.640625 C 15.914062 -2.398438 15.128906 -1.425781 14.046875 -0.71875 C 12.960938 -0.0195312 11.539062 0.328125 9.78125 0.328125 C 8.144531 0.328125 6.734375 0.00390625 5.546875 -0.640625 C 4.367188 -1.296875 3.457031 -2.28125 2.8125 -3.59375 C 2.175781 -4.90625 1.859375 -6.535156 1.859375 -8.484375 C 1.859375 -10.421875 2.195312 -12.050781 2.875 -13.375 C 3.550781 -14.695312 4.46875 -15.6875 5.625 -16.34375 C 6.789062 -17 8.125 -17.328125 9.625 -17.328125 C 11.8125 -17.328125 13.515625 -16.710938 14.734375 -15.484375 C 15.953125 -14.253906 16.566406 -12.429688 16.578125 -10.015625 C 16.578125 -9.066406 16.554688 -8.429688 16.515625 -8.109375 Z M 14.09375 -10.015625 C 14.0625 -11.828125 13.664062 -13.144531 12.90625 -13.96875 C 12.144531 -14.789062 11.050781 -15.203125 9.625 -15.203125 C 8.132812 -15.203125 6.96875 -14.785156 6.125 -13.953125 C 5.28125 -13.128906 4.765625 -11.816406 4.578125 -10.015625 Z M 14.09375 -10.015625 "/></g></g></g></svg>